<?xml version="1.0" standalone="no"?><svg xmlns="http://www.w3.org/2000/svg" viewBox="0 0 1440 320"><path fill="#9c27b0" fill-opacity="1" d="M0,160L30,176C60,192,120,224,180,218.7C240,213,300,171,360,170.7C420,171,480,213,540,208C600,203,660,149,720,128C780,107,840,117,900,149.3C960,181,1020,235,1080,234.7C1140,235,1200,181,1260,149.3C1320,117,1380,107,1410,101.3L1440,96L1440,0L1410,0C1380,0,1320,0,1260,0C1200,0,1140,0,1080,0C1020,0,960,0,900,0C840,0,780,0,720,0C660,0,600,0,540,0C480,0,420,0,360,0C300,0,240,0,180,0C120,0,60,0,30,0L0,0Z"></path></svg>